<svg width="2171" height="684" viewBox="0 0 2171 684" fill="none" xmlns="http://www.w3.org/2000/svg">
<path d="M987.641 401.652C990.18 406.43 992.494 411.432 994.585 416.658C996.824 421.735 998.989 426.886 1001.08 432.112C1003.17 426.737 1005.34 421.436 1007.57 416.21C1009.81 410.984 1012.2 405.982 1014.74 401.204L1110.6 221.805C1111.8 219.565 1112.99 217.773 1114.18 216.429C1115.53 215.086 1116.95 214.115 1118.44 213.518C1120.08 212.921 1121.87 212.547 1123.81 212.398C1125.76 212.249 1128.07 212.174 1130.76 212.174H1176.22V536.034H1123.14V326.846C1123.14 322.964 1123.22 318.709 1123.37 314.08C1123.67 309.451 1124.04 304.748 1124.49 299.97L1026.61 483.625C1024.37 487.806 1021.46 491.09 1017.88 493.479C1014.29 495.719 1010.11 496.839 1005.34 496.839H997.048C992.27 496.839 988.089 495.719 984.506 493.479C980.922 491.09 978.011 487.806 975.771 483.625L876.553 299.298C877.15 304.225 877.523 309.078 877.673 313.856C877.971 318.485 878.121 322.815 878.121 326.846V536.034H825.04V212.174H870.506C873.193 212.174 875.508 212.249 877.449 212.398C879.39 212.547 881.107 212.921 882.6 213.518C884.242 214.115 885.735 215.086 887.079 216.429C888.423 217.773 889.692 219.565 890.887 221.805L987.641 401.652Z" fill="white"/>
<path d="M1418.42 536.034H1393.56C1388.33 536.034 1384.23 535.287 1381.24 533.794C1378.25 532.152 1376.01 528.941 1374.52 524.163L1369.59 507.814C1363.77 513.039 1358.02 517.668 1352.35 521.7C1346.82 525.582 1341.07 528.867 1335.1 531.554C1329.13 534.242 1322.78 536.258 1316.06 537.601C1309.35 538.945 1301.88 539.617 1293.67 539.617C1283.96 539.617 1275 538.348 1266.79 535.81C1258.58 533.122 1251.49 529.165 1245.51 523.939C1239.69 518.713 1235.14 512.218 1231.85 504.454C1228.57 496.69 1226.92 487.656 1226.92 477.354C1226.92 468.694 1229.16 460.183 1233.64 451.821C1238.27 443.31 1245.89 435.695 1256.49 428.976C1267.09 422.108 1281.2 416.434 1298.82 411.955C1316.44 407.475 1338.31 404.937 1364.44 404.34V390.902C1364.44 375.522 1361.16 364.175 1354.59 356.858C1348.17 349.393 1338.76 345.66 1326.37 345.66C1317.41 345.66 1309.94 346.705 1303.97 348.795C1298 350.886 1292.77 353.275 1288.29 355.962C1283.96 358.501 1279.93 360.815 1276.2 362.905C1272.47 364.996 1268.36 366.041 1263.88 366.041C1260.15 366.041 1256.94 365.07 1254.25 363.129C1251.56 361.188 1249.4 358.799 1247.75 355.962L1237.68 338.269C1264.1 314.08 1295.98 301.986 1333.31 301.986C1346.75 301.986 1358.69 304.225 1369.15 308.705C1379.75 313.035 1388.71 319.157 1396.02 327.07C1403.34 334.835 1408.86 344.167 1412.6 355.066C1416.48 365.966 1418.42 377.911 1418.42 390.902V536.034ZM1310.91 501.542C1316.59 501.542 1321.81 501.02 1326.59 499.975C1331.37 498.929 1335.85 497.362 1340.03 495.271C1344.36 493.181 1348.47 490.643 1352.35 487.656C1356.38 484.521 1360.41 480.863 1364.44 476.682V437.935C1348.32 438.682 1334.8 440.1 1323.9 442.191C1313.15 444.132 1304.49 446.67 1297.92 449.805C1291.35 452.941 1286.65 456.599 1283.81 460.78C1281.13 464.961 1279.78 469.515 1279.78 474.442C1279.78 484.147 1282.62 491.09 1288.29 495.271C1294.12 499.452 1301.66 501.542 1310.91 501.542Z" fill="white"/>
<path d="M1472.81 536.034V306.241H1506.63C1513.8 306.241 1518.5 309.601 1520.74 316.32L1524.55 334.461C1529.18 329.683 1534.03 325.353 1539.11 321.471C1544.34 317.589 1549.79 314.229 1555.46 311.392C1561.28 308.556 1567.48 306.39 1574.05 304.897C1580.62 303.404 1587.79 302.658 1595.55 302.658C1608.09 302.658 1619.22 304.823 1628.92 309.153C1638.63 313.334 1646.69 319.306 1653.11 327.07C1659.68 334.685 1664.61 343.868 1667.89 354.619C1671.33 365.22 1673.04 376.941 1673.04 389.782V536.034H1617.72V389.782C1617.72 375.746 1614.44 364.921 1607.87 357.306C1601.45 349.542 1591.74 345.66 1578.75 345.66C1569.2 345.66 1560.24 347.825 1551.88 352.155C1543.51 356.485 1535.6 362.383 1528.14 369.848V536.034H1472.81Z" fill="white"/>
<path d="M1806.91 302.21C1816.77 302.21 1826.03 303.255 1834.69 305.345C1843.35 307.286 1851.26 310.198 1858.43 314.08H1924.5V334.685C1924.5 338.119 1923.6 340.807 1921.81 342.748C1920.02 344.689 1916.96 346.033 1912.63 346.78L1892.02 350.587C1893.52 354.469 1894.64 358.575 1895.38 362.905C1896.28 367.235 1896.73 371.79 1896.73 376.568C1896.73 387.915 1894.41 398.218 1889.78 407.475C1885.3 416.583 1879.03 424.348 1870.97 430.768C1863.06 437.189 1853.57 442.191 1842.53 445.774C1831.63 449.208 1819.76 450.925 1806.91 450.925C1798.25 450.925 1789.82 450.104 1781.61 448.462C1774.44 452.792 1770.86 457.644 1770.86 463.02C1770.86 467.648 1772.95 471.083 1777.13 473.322C1781.46 475.413 1787.06 476.906 1793.92 477.802C1800.94 478.698 1808.86 479.295 1817.66 479.593C1826.47 479.743 1835.51 480.191 1844.76 480.937C1854.02 481.684 1863.06 483.028 1871.87 484.969C1880.67 486.76 1888.51 489.672 1895.38 493.703C1902.4 497.735 1908 503.259 1912.18 510.277C1916.51 517.146 1918.67 526.03 1918.67 536.93C1918.67 547.083 1916.14 556.937 1911.06 566.493C1906.13 576.049 1898.89 584.56 1889.33 592.026C1879.93 599.492 1868.36 605.464 1854.62 609.943C1840.88 614.572 1825.2 616.887 1807.59 616.887C1790.12 616.887 1774.96 615.169 1762.12 611.735C1749.28 608.45 1738.6 603.971 1730.09 598.297C1721.73 592.773 1715.46 586.352 1711.28 579.036C1707.1 571.719 1705.01 564.104 1705.01 556.191C1705.01 545.44 1708.29 536.407 1714.86 529.091C1721.43 521.774 1730.54 515.951 1742.19 511.621C1736.51 508.485 1731.96 504.305 1728.52 499.079C1725.09 493.853 1723.37 487.059 1723.37 478.698C1723.37 475.263 1723.97 471.754 1725.17 468.171C1726.36 464.438 1728.15 460.78 1730.54 457.196C1733.08 453.613 1736.21 450.253 1739.95 447.118C1743.68 443.833 1748.08 440.921 1753.16 438.383C1741.52 432.112 1732.33 423.75 1725.61 413.298C1719.04 402.847 1715.76 390.603 1715.76 376.568C1715.76 365.22 1718 354.992 1722.48 345.884C1727.11 336.626 1733.45 328.787 1741.52 322.367C1749.73 315.797 1759.36 310.795 1770.41 307.361C1781.61 303.927 1793.77 302.21 1806.91 302.21ZM1867.61 546.336C1867.61 541.857 1866.27 538.199 1863.58 535.362C1860.89 532.525 1857.23 530.36 1852.6 528.867C1847.98 527.224 1842.53 526.03 1836.25 525.283C1830.13 524.537 1823.56 524.014 1816.54 523.715C1809.68 523.267 1802.51 522.894 1795.04 522.595C1787.73 522.148 1780.64 521.476 1773.77 520.58C1767.5 524.014 1762.42 528.12 1758.54 532.898C1754.8 537.527 1752.94 542.902 1752.94 549.024C1752.94 553.055 1753.91 556.788 1755.85 560.222C1757.94 563.806 1761.15 566.867 1765.48 569.405C1769.96 571.943 1775.71 573.884 1782.73 575.228C1789.74 576.721 1798.33 577.468 1808.48 577.468C1818.78 577.468 1827.67 576.647 1835.13 575.004C1842.6 573.511 1848.72 571.346 1853.5 568.509C1858.43 565.822 1862.01 562.537 1864.25 558.655C1866.49 554.922 1867.61 550.816 1867.61 546.336ZM1806.91 415.538C1813.78 415.538 1819.76 414.642 1824.83 412.851C1829.91 410.909 1834.09 408.296 1837.37 405.012C1840.81 401.727 1843.35 397.77 1844.99 393.141C1846.78 388.513 1847.68 383.436 1847.68 377.911C1847.68 366.564 1844.24 357.605 1837.37 351.035C1830.65 344.316 1820.5 340.956 1806.91 340.956C1793.33 340.956 1783.1 344.316 1776.23 351.035C1769.51 357.605 1766.15 366.564 1766.15 377.911C1766.15 383.287 1766.97 388.289 1768.62 392.917C1770.41 397.546 1772.95 401.577 1776.23 405.012C1779.66 408.296 1783.92 410.909 1789 412.851C1794.22 414.642 1800.2 415.538 1806.91 415.538Z" fill="white"/>
<path d="M2057.35 302.658C2074.52 302.658 2090.05 305.42 2103.93 310.945C2117.97 316.469 2129.91 324.308 2139.77 334.461C2149.62 344.615 2157.24 357.008 2162.61 371.64C2167.99 386.273 2170.68 402.623 2170.68 420.689C2170.68 438.906 2167.99 455.33 2162.61 469.963C2157.24 484.595 2149.62 497.063 2139.77 507.366C2129.91 517.668 2117.97 525.582 2103.93 531.106C2090.05 536.631 2074.52 539.393 2057.35 539.393C2040.18 539.393 2024.57 536.631 2010.54 531.106C1996.5 525.582 1984.48 517.668 1974.48 507.366C1964.62 497.063 1956.93 484.595 1951.41 469.963C1946.03 455.33 1943.35 438.906 1943.35 420.689C1943.35 402.623 1946.03 386.273 1951.41 371.64C1956.93 357.008 1964.62 344.615 1974.48 334.461C1984.48 324.308 1996.5 316.469 2010.54 310.945C2024.57 305.42 2040.18 302.658 2057.35 302.658ZM2057.35 496.839C2076.46 496.839 2090.57 490.419 2099.68 477.578C2108.93 464.737 2113.56 445.923 2113.56 421.137C2113.56 396.351 2108.93 377.463 2099.68 364.473C2090.57 351.483 2076.46 344.988 2057.35 344.988C2037.94 344.988 2023.6 351.558 2014.34 364.697C2005.09 377.687 2000.46 396.501 2000.46 421.137C2000.46 445.774 2005.09 464.587 2014.34 477.578C2023.6 490.419 2037.94 496.839 2057.35 496.839Z" fill="white"/>
<path fill-rule="evenodd" clip-rule="evenodd" d="M267.994 159.071C267.998 159.066 268.002 159.061 268.005 159.056C296.779 173.819 328.265 178.878 358.395 178.791C375.902 194.871 390.468 213.757 404.153 233.152C409.828 241.253 414.946 249.73 419.472 258.524C429.937 278.676 437.634 299.999 445.422 321.573C447.706 327.9 449.997 334.249 452.369 340.597C453.112 343.313 453.889 346.031 454.698 348.751L454.74 348.74C466.768 389.994 484.331 434.063 507.864 470.449L507.841 470.459C515.625 482.412 524.344 493.73 533.919 504.306C535.804 506.346 537.732 508.365 539.663 510.388L539.663 510.388C548.676 519.831 557.753 529.341 562.899 541.239C569.306 556.066 568.814 573.122 564.96 588.813C546.779 662.774 475.553 682.208 407.483 684L407.516 683.915C381.993 684.424 356.648 682.522 334.172 680.218C334.172 680.218 225.776 668.998 133.895 601.824L130.929 599.62C130.93 599.62 130.93 599.62 130.93 599.62C120.205 591.628 109.974 582.994 100.292 573.764C74.5386 549.184 51.6239 521.306 34.1009 490.7C34.2181 490.582 34.3351 490.465 34.4518 490.347C32.3779 486.615 30.3897 482.845 28.4872 479.037C11.5351 445.109 1.20368 408.176 0.735876 368.919C-0.0614848 303.048 22.4734 235.59 65.3074 186.682C65.2922 186.642 65.277 186.601 65.2617 186.561C88.4539 161.157 117.442 141.2 151.759 129.837C173.272 122.649 195.858 119.197 218.536 119.633C232.337 135.837 249.129 149.227 267.994 159.071ZM215.193 590.058C230.7 584.397 245.391 576.785 259.09 567.405C245.304 576.721 230.592 584.338 215.193 590.058Z" fill="url(#paint0_linear_2533_673)"/>
<path fill-rule="evenodd" clip-rule="evenodd" d="M492.98 105.423C492.991 105.422 493.002 105.422 493.013 105.422L493.949 104.819C373.096 -101.334 215.071 60.972 215.071 60.972L215.298 61.3696C215.288 61.3718 215.279 61.3741 215.27 61.3764C306.14 220.696 478.84 114.508 492.98 105.423Z" fill="url(#paint1_linear_2533_673)"/>
<path d="M343.172 460.491C309.87 540.097 245.931 592.809 168.465 600.794C166.8 601.016 145.598 602.689 133.895 601.824C225.776 668.998 334.172 680.218 334.172 680.218C357.38 682.597 383.649 684.547 410.013 683.857C419.298 659.619 424.523 631.867 423.024 600.381C419.543 527.253 461.947 489.709 507.864 470.449C484.331 434.063 466.768 389.994 454.74 348.74C418.885 358.279 373.349 388.274 343.172 460.491Z" fill="url(#paint2_linear_2533_673)"/>
<path d="M421.573 599.866C423.08 631.352 416.768 659.761 407.483 684C475.553 682.208 546.779 662.774 564.96 588.813C568.814 573.121 569.305 556.066 562.899 541.239C556.651 526.793 544.607 515.866 533.919 504.306C523.919 493.26 514.853 481.406 506.809 468.864C460.933 488.131 418.092 526.745 421.573 599.866Z" fill="url(#paint3_linear_2533_673)"/>
<path d="M452.369 340.597C441.911 312.608 433.007 284.587 419.472 258.524C414.946 249.729 409.828 241.253 404.153 233.152C390.468 213.757 375.902 194.871 358.395 178.791C328.265 178.878 296.779 173.819 268.005 159.055C238.858 200.397 205.509 270.529 236.036 350.579C281.112 468.8 189.635 549.596 130.929 599.62L133.895 601.824C144.902 602.683 155.965 602.524 166.943 601.349C244.401 593.356 312.043 539.376 345.344 459.777C375.53 387.56 419.44 360.126 455.247 350.579C454.238 347.249 453.279 343.921 452.369 340.597Z" fill="url(#paint4_linear_2533_673)"/>
<path d="M68.4571 183.159C23.5792 232.319 -0.0808069 301.452 0.735876 368.919C1.20368 408.175 11.5351 445.108 28.4872 479.036C31.03 484.127 33.7259 489.148 36.5748 494.101C130.921 399.398 96.8348 258.286 68.4571 183.159Z" fill="url(#paint5_linear_2533_673)"/>
<path d="M237.621 350.58C207.095 270.497 239.699 200.825 268.806 159.492C249.611 149.61 232.534 136.07 218.536 119.633C195.858 119.197 173.272 122.649 151.759 129.837C117.442 141.2 88.454 161.157 65.2618 186.561C93.0131 260.039 126.362 398.074 34.101 490.7C51.6239 521.306 74.5386 549.184 100.292 573.764C110.45 583.447 121.212 592.475 132.515 600.794C191.221 550.794 282.698 468.8 237.621 350.58Z" fill="url(#paint6_linear_2533_673)"/>
<path d="M351.449 74.1047C415.333 99.3108 460.076 106.138 492.514 105.162L493.449 104.56C372.596 -101.593 214.572 60.7127 214.572 60.7127L214.802 61.117C248.888 55.0752 298.429 53.196 351.449 74.1047Z" fill="url(#paint7_linear_2533_673)"/>
<path d="M352.242 72.6776C299.253 51.8006 249.428 52.5935 214.77 61.1171C305.644 220.442 478.352 114.241 492.482 105.162C460.021 106.138 416.126 97.8837 352.242 72.6776Z" fill="url(#paint8_linear_2533_673)"/>
<defs>
<linearGradient id="paint0_linear_2533_673" x1="-69.9746" y1="216.326" x2="669.004" y2="659.159" gradientUnits="userSpaceOnUse">
<stop stop-color="#E54033"/>
<stop offset="0.489583" stop-color="#FECA1A"/>
<stop offset="1" stop-color="#AFD803"/>
</linearGradient>
<linearGradient id="paint1_linear_2533_673" x1="209033" y1="24701.8" x2="162770" y2="-22885.5" gradientUnits="userSpaceOnUse">
<stop offset="0.15" stop-color="#6CBF00"/>
<stop offset="1" stop-color="#AFD803"/>
</linearGradient>
<linearGradient id="paint2_linear_2533_673" x1="57.6261" y1="607.406" x2="520.677" y2="494.815" gradientUnits="userSpaceOnUse">
<stop offset="0.21" stop-color="#E54033"/>
<stop offset="0.84" stop-color="#FECA1A"/>
</linearGradient>
<linearGradient id="paint3_linear_2533_673" x1="422.445" y1="576.174" x2="565.325" y2="577.244" gradientUnits="userSpaceOnUse">
<stop stop-color="#FECA1A"/>
<stop offset="0.4" stop-color="#FECA1A"/>
<stop offset="1" stop-color="#AFD803"/>
</linearGradient>
<linearGradient id="paint4_linear_2533_673" x1="99.0312" y1="610.292" x2="391.966" y2="213.71" gradientUnits="userSpaceOnUse">
<stop offset="0.16" stop-color="#E54033"/>
<stop offset="0.84" stop-color="#FECA1A"/>
</linearGradient>
<linearGradient id="paint5_linear_2533_673" x1="56.3734" y1="216.239" x2="43.4016" y2="472.392" gradientUnits="userSpaceOnUse">
<stop stop-color="#FECA1A"/>
<stop offset="0.76" stop-color="#E54033"/>
</linearGradient>
<linearGradient id="paint6_linear_2533_673" x1="199.673" y1="149.723" x2="121.438" y2="446.797" gradientUnits="userSpaceOnUse">
<stop offset="0.16" stop-color="#FECA1A"/>
<stop offset="1" stop-color="#E54033"/>
</linearGradient>
<linearGradient id="paint7_linear_2533_673" x1="229.978" y1="7.49344" x2="519.646" y2="114.265" gradientUnits="userSpaceOnUse">
<stop offset="0.15" stop-color="#6CBF00"/>
<stop offset="1" stop-color="#AFD803"/>
</linearGradient>
<linearGradient id="paint8_linear_2533_673" x1="209032" y1="24701.5" x2="162770" y2="-22885.8" gradientUnits="userSpaceOnUse">
<stop offset="0.15" stop-color="#6CBF00"/>
<stop offset="1" stop-color="#AFD803"/>
</linearGradient>
</defs>
</svg>
